<?xml version="1.0" encoding="UTF-8" standalone="no"?>
<svg width="118px" height="136px" viewBox="0 0 118 136" version="1.1" xmlns="http://www.w3.org/2000/svg" xmlns:xlink="http://www.w3.org/1999/xlink">
    <g id="Welcome" stroke="none" stroke-width="1" fill="none" fill-rule="evenodd">
        <g id="Desktop-HD-Copy-5" transform="translate(-136.000000, -78.000000)">
            <g id="G" transform="translate(130.000000, 69.000000)">
                <polygon id="Polygon-1-Copy-22" fill="#0084C8" transform="translate(68.481369, 84.903337) rotate(-60.000000) translate(-68.481369, -84.903337) " points="68.4813693 74.9960275 79.8754199 94.8106462 57.0873186 94.8106462"></polygon>
                <polygon id="Polygon-1-Copy-23" fill="#005C94" points="85.2149462 79.8728814 96.6089968 99.6875 73.8208955 99.6875"></polygon>
                <polygon id="Polygon-1-Copy-19" fill="#19AEFF" transform="translate(96.018683, 84.903337) rotate(-60.000000) translate(-96.018683, -84.903337) " points="96.0186827 74.9960275 107.412733 94.8106462 84.6246321 94.8106462"></polygon>
                <polygon id="Polygon-1-Copy-20" fill="#0084C8" points="112.140319 79.8728814 123.53437 99.6875 100.746269 99.6875"></polygon>
                <polygon id="Polygon-1-Copy-18" fill="#005C94" transform="translate(108.257489, 106.407574) rotate(-60.000000) translate(-108.257489, -106.407574) " points="108.257489 96.5002648 119.651539 116.314883 96.863438 116.314883"></polygon>
                <polygon id="Polygon-1-Copy-17" fill="#19AEFF" points="98.0656924 102.605932 109.459743 122.420551 86.6716418 122.420551"></polygon>
                <polygon id="Polygon-1-Copy-16" fill="#0084C8" transform="translate(95.406742, 129.140625) rotate(-60.000000) translate(-95.406742, -129.140625) " points="95.4067424 119.233316 106.800793 139.047934 84.0126918 139.047934"></polygon>
                <polygon id="Polygon-1-Copy-15" fill="#005C94" points="84.6030059 124.110169 95.9970565 143.924788 73.2089552 143.924788"></polygon>
                <polygon id="Polygon-1-Copy-11" fill="#19AEFF" transform="translate(67.257489, 129.140625) rotate(-60.000000) translate(-67.257489, -129.140625) " points="67.2574887 119.233316 78.6515393 139.047934 55.863438 139.047934"></polygon>
                <polygon id="Polygon-1-Copy-14" fill="#0084C8" points="56.4537521 124.724576 67.8478028 144.539195 45.0597015 144.539195"></polygon>
                <polygon id="Polygon-1-Copy-13" fill="#005C94" transform="translate(40.944056, 129.140625) rotate(-60.000000) translate(-40.944056, -129.140625) " points="40.9440558 119.233316 52.3381065 139.047934 29.5500052 139.047934"></polygon>
                <polygon id="Polygon-1" fill="#19AEFF" points="42.9910656 102.605932 54.3851162 122.420551 31.5970149 122.420551"></polygon>
                <polygon id="Polygon-1-Copy-10" fill="#0084C8" transform="translate(27.481369, 106.407574) rotate(-60.000000) translate(-27.481369, -106.407574) " points="27.4813693 96.5002648 38.8754199 116.314883 16.0873186 116.314883"></polygon>
                <polygon id="Polygon-1-Copy-9" fill="#005C94" points="30.1403193 79.8728814 41.53437 99.6875 18.7462687 99.6875"></polygon>
                <polygon id="Polygon-1-Copy-7" fill="#19AEFF" transform="translate(15.242563, 82.445710) rotate(-60.000000) translate(-15.242563, -82.445710) " points="15.2425633 72.5384004 26.636614 92.3530191 3.84851266 92.3530191"></polygon>
                <polygon id="Polygon-1-Copy-2" fill="#0084C8" points="17.9015133 55.9110169 29.295564 75.7256356 6.50746269 75.7256356"></polygon>
                <polygon id="Polygon-1-Copy-6" fill="#005C94" transform="translate(27.481369, 59.098252) rotate(-60.000000) translate(-27.481369, -59.098252) " points="27.4813693 49.1909428 38.8754199 69.0055614 16.0873186 69.0055614"></polygon>
                <polygon id="Polygon-1-Copy-12" fill="#19AEFF" points="30.7522596 32.5635593 42.1463103 52.378178 19.358209 52.378178"></polygon>
                <polygon id="Polygon-1-Copy" fill="#0084C8" transform="translate(40.944056, 36.365201) rotate(-60.000000) translate(-40.944056, -36.365201) " points="40.9440558 26.4578919 52.3381065 46.2725106 29.5500052 46.2725106"></polygon>
                <polygon id="Polygon-1-Copy-8" fill="#005C94" points="44.2149462 9.83050847 55.6089968 29.6451271 32.8208955 29.6451271"></polygon>
                <polygon id="Polygon-1-Copy-3" fill="#19AEFF" transform="translate(55.018683, 14.860964) rotate(-60.000000) translate(-55.018683, -14.860964) " points="55.0186827 4.95365466 66.4127334 24.7682733 43.6246321 24.7682733"></polygon>
                <polygon id="Polygon-1-Copy-4" fill="#0084C8" points="71.1403193 9.83050847 82.53437 29.6451271 59.7462687 29.6451271"></polygon>
                <polygon id="Polygon-1-Copy-26" fill="#005C94" transform="translate(81.944056, 14.860964) rotate(-60.000000) translate(-81.944056, -14.860964) " points="81.9440558 4.95365466 93.3381065 24.7682733 70.5500052 24.7682733"></polygon>
                <polygon id="Polygon-1-Copy-5" fill="#19AEFF" points="98.6776327 10.4449153 110.071683 30.2595339 87.2835821 30.2595339"></polygon>
                <polygon id="Polygon-1-Copy-27" fill="#0084C8" transform="translate(95.406742, 36.979608) rotate(-60.000000) translate(-95.406742, -36.979608) " points="95.4067424 27.0722987 106.800793 46.8869174 84.0126918 46.8869174"></polygon>
                <polygon id="Polygon-1-Copy-21" fill="#005C94" points="111.528379 33.7923729 122.92243 53.6069915 100.134328 53.6069915"></polygon>
            </g>
        </g>
    </g>
</svg>